<?xml version="1.0"?><svg xmlns="http://www.w3.org/2000/svg"><rect x="1" y="1" width="40" height="10" fill="#ff2e00" stroke="grey" stroke-width="1"/><text x="10" y="9" font-size="7">86</text><rect x="41" y="1" width="40" height="10" fill="#ff1800" stroke="grey" stroke-width="1"/><text x="50" y="9" font-size="7">90</text><rect x="81" y="1" width="40" height="10" fill="#ffae00" stroke="grey" stroke-width="1"/><text x="90" y="9" font-size="7">69</text><rect x="121" y="1" width="40" height="10" fill="#fffe00" stroke="grey" stroke-width="1"/><text x="130" y="9" font-size="7">51</text><rect x="161" y="1" width="40" height="10" fill="#01ff00" stroke="grey" stroke-width="1"/><text x="170" y="9" font-size="7">2</text><rect x="201" y="1" width="40" height="10" fill="#ff0400" stroke="grey" stroke-width="1"/><text x="210" y="9" font-size="7">96</text><rect x="241" y="1" width="40" height="10" fill="#ff9f00" stroke="grey" stroke-width="1"/><text x="250" y="9" font-size="7">71</text><rect x="281" y="1" width="40" height="10" fill="#fcff00" stroke="grey" stroke-width="1"/><text x="290" y="9" font-size="7">47</text><rect x="321" y="1" width="40" height="10" fill="#ff2200" stroke="grey" stroke-width="1"/><text x="330" y="9" font-size="7">88</text><rect x="361" y="1" width="40" height="10" fill="#c3ff00" stroke="grey" stroke-width="1"/><text x="370" y="9" font-size="7">34</text><rect x="401" y="1" width="40" height="10" fill="#f8ff00" stroke="grey" stroke-width="1"/><text x="410" y="9" font-size="7">45</text><rect x="441" y="1" width="40" height="10" fill="#faff00" stroke="grey" stroke-width="1"/><text x="450" y="9" font-size="7">46</text><rect x="481" y="1" width="40" height="10" fill="#ff1d00" stroke="grey" stroke-width="1"/><text x="490" y="9" font-size="7">89</text><rect x="521" y="1" width="40" height="10" fill="#c3ff00" stroke="grey" stroke-width="1"/><text x="530" y="9" font-size="7">34</text><rect x="561" y="1" width="40" height="10" fill="#aeff00" stroke="grey" stroke-width="1"/><text x="570" y="9" font-size="7">31</text><rect x="601" y="1" width="40" height="10" fill="#dcff00" stroke="grey" stroke-width="1"/><text x="610" y="9" font-size="7">38</text><rect x="641" y="1" width="40" height="10" fill="#ff0200" stroke="grey" stroke-width="1"/><text x="650" y="9" font-size="7">97</text><rect x="681" y="1" width="40" height="10" fill="#ff3b00" stroke="grey" stroke-width="1"/><text x="690" y="9" font-size="7">84</text><rect x="721" y="1" width="40" height="10" fill="#ebff00" stroke="grey" stroke-width="1"/><text x="730" y="9" font-size="7">41</text><rect x="761" y="1" width="40" height="10" fill="#ff5800" stroke="grey" stroke-width="1"/><text x="770" y="9" font-size="7">80</text><rect x="801" y="1" width="40" height="10" fill="#2eff00" stroke="grey" stroke-width="1"/><text x="810" y="9" font-size="7">14</text><rect x="841" y="1" width="40" height="10" fill="#04ff00" stroke="grey" stroke-width="1"/><text x="850" y="9" font-size="7">4</text><rect x="881" y="1" width="40" height="10" fill="#ffff00" stroke="grey" stroke-width="1"/><text x="890" y="9" font-size="7">50</text><rect x="921" y="1" width="40" height="10" fill="#ff4200" stroke="grey" stroke-width="1"/><text x="930" y="9" font-size="7">83</text><rect x="961" y="1" width="40" height="10" fill="#0cff00" stroke="grey" stroke-width="1"/><text x="970" y="9" font-size="7">7</text><rect x="1001" y="1" width="40" height="10" fill="#ff4900" stroke="grey" stroke-width="1"/><text x="1010" y="9" font-size="7">82</text><rect x="1" y="21" width="40" height="10" fill="#ff0000" stroke="grey" stroke-width="1"/><text x="10" y="29" font-size="7">19771</text><rect x="41" y="21" width="40" height="10" fill="#ffcb00" stroke="grey" stroke-width="1"/><text x="50" y="29" font-size="7">12979</text><rect x="81" y="21" width="40" height="10" fill="#ff0700" stroke="grey" stroke-width="1"/><text x="90" y="29" font-size="7">18912</text><rect x="121" y="21" width="40" height="10" fill="#fffd00" stroke="grey" stroke-width="1"/><text x="130" y="29" font-size="7">10432</text><rect x="161" y="21" width="40" height="10" fill="#fffd00" stroke="grey" stroke-width="1"/><text x="170" y="29" font-size="7">10544</text><rect x="201" y="21" width="40" height="10" fill="#ffcc00" stroke="grey" stroke-width="1"/><text x="210" y="29" font-size="7">12928</text><rect x="241" y="21" width="40" height="10" fill="#ffbc00" stroke="grey" stroke-width="1"/><text x="250" y="29" font-size="7">13403</text><rect x="281" y="21" width="40" height="10" fill="#36ff00" stroke="grey" stroke-width="1"/><text x="290" y="29" font-size="7">3047</text><rect x="321" y="21" width="40" height="10" fill="#fffd00" stroke="grey" stroke-width="1"/><text x="330" y="29" font-size="7">10527</text><rect x="361" y="21" width="40" height="10" fill="#feff00" stroke="grey" stroke-width="1"/><text x="370" y="29" font-size="7">9740</text><rect x="401" y="21" width="40" height="10" fill="#e8ff00" stroke="grey" stroke-width="1"/><text x="410" y="29" font-size="7">8100</text><rect x="441" y="21" width="40" height="10" fill="#00ff00" stroke="grey" stroke-width="1"/><text x="450" y="29" font-size="7">92</text><rect x="481" y="21" width="40" height="10" fill="#2fff00" stroke="grey" stroke-width="1"/><text x="490" y="29" font-size="7">2856</text><rect x="521" y="21" width="40" height="10" fill="#ff8a00" stroke="grey" stroke-width="1"/><text x="530" y="29" font-size="7">14730</text><rect x="561" y="21" width="40" height="10" fill="#0cff00" stroke="grey" stroke-width="1"/><text x="570" y="29" font-size="7">1396</text><rect x="601" y="21" width="40" height="10" fill="#ff5b00" stroke="grey" stroke-width="1"/><text x="610" y="29" font-size="7">15905</text><rect x="641" y="21" width="40" height="10" fill="#baff00" stroke="grey" stroke-width="1"/><text x="650" y="29" font-size="7">6534</text><rect x="681" y="21" width="40" height="10" fill="#71ff00" stroke="grey" stroke-width="1"/><text x="690" y="29" font-size="7">4650</text><rect x="721" y="21" width="40" height="10" fill="#fff100" stroke="grey" stroke-width="1"/><text x="730" y="29" font-size="7">11469</text><rect x="761" y="21" width="40" height="10" fill="#4aff00" stroke="grey" stroke-width="1"/><text x="770" y="29" font-size="7">3628</text><rect x="801" y="21" width="40" height="10" fill="#efff00" stroke="grey" stroke-width="1"/><text x="810" y="29" font-size="7">8433</text><rect x="841" y="21" width="40" height="10" fill="#34ff00" stroke="grey" stroke-width="1"/><text x="850" y="29" font-size="7">2994</text><rect x="881" y="21" width="40" height="10" fill="#fff900" stroke="grey" stroke-width="1"/><text x="890" y="29" font-size="7">10899</text><rect x="921" y="21" width="40" height="10" fill="#ff4900" stroke="grey" stroke-width="1"/><text x="930" y="29" font-size="7">16396</text><rect x="961" y="21" width="40" height="10" fill="#ff1000" stroke="grey" stroke-width="1"/><text x="970" y="29" font-size="7">18355</text><rect x="1001" y="21" width="40" height="10" fill="#fff200" stroke="grey" stroke-width="1"/><text x="1010" y="29" font-size="7">11424</text><rect x="1" y="31" width="40" height="10" fill="#bfff00" stroke="grey" stroke-width="1"/><text x="10" y="39" font-size="7">6674</text><rect x="41" y="31" width="40" height="10" fill="#ff1f00" stroke="grey" stroke-width="1"/><text x="50" y="39" font-size="7">17707</text><rect x="81" y="31" width="40" height="10" fill="#ffac00" stroke="grey" stroke-width="1"/><text x="90" y="39" font-size="7">13855</text><rect x="121" y="31" width="40" height="10" fill="#ff4800" stroke="grey" stroke-width="1"/><text x="130" y="39" font-size="7">16407</text><rect x="161" y="31" width="40" height="10" fill="#ffe000" stroke="grey" stroke-width="1"/><text x="170" y="39" font-size="7">12232</text><rect x="201" y="31" width="40" height="10" fill="#30ff00" stroke="grey" stroke-width="1"/><text x="210" y="39" font-size="7">2886</text><rect x="241" y="31" width="40" height="10" fill="#ffe800" stroke="grey" stroke-width="1"/><text x="250" y="39" font-size="7">11908</text><rect x="281" y="31" width="40" height="10" fill="#11ff00" stroke="grey" stroke-width="1"/><text x="290" y="39" font-size="7">1705</text><rect x="321" y="31" width="40" height="10" fill="#7fff00" stroke="grey" stroke-width="1"/><text x="330" y="39" font-size="7">5000</text><rect x="361" y="31" width="40" height="10" fill="#0eff00" stroke="grey" stroke-width="1"/><text x="370" y="39" font-size="7">1537</text><rect x="401" y="31" width="40" height="10" fill="#fffd00" stroke="grey" stroke-width="1"/><text x="410" y="39" font-size="7">10440</text><rect x="441" y="31" width="40" height="10" fill="#fffb00" stroke="grey" stroke-width="1"/><text x="450" y="39" font-size="7">10711</text><rect x="481" y="31" width="40" height="10" fill="#7cff00" stroke="grey" stroke-width="1"/><text x="490" y="39" font-size="7">4917</text><rect x="521" y="31" width="40" height="10" fill="#fffb00" stroke="grey" stroke-width="1"/><text x="530" y="39" font-size="7">10770</text><rect x="561" y="31" width="40" height="10" fill="#ff2c00" stroke="grey" stroke-width="1"/><text x="570" y="39" font-size="7">17272</text><rect x="601" y="31" width="40" height="10" fill="#ff7000" stroke="grey" stroke-width="1"/><text x="610" y="39" font-size="7">15364</text><rect x="641" y="31" width="40" height="10" fill="#ff0300" stroke="grey" stroke-width="1"/><text x="650" y="39" font-size="7">19277</text><rect x="681" y="31" width="40" height="10" fill="#ff1600" stroke="grey" stroke-width="1"/><text x="690" y="39" font-size="7">18094</text><rect x="721" y="31" width="40" height="10" fill="#55ff00" stroke="grey" stroke-width="1"/><text x="730" y="39" font-size="7">3929</text><rect x="761" y="31" width="40" height="10" fill="#4dff00" stroke="grey" stroke-width="1"/><text x="770" y="39" font-size="7">3705</text><rect x="801" y="31" width="40" height="10" fill="#cfff00" stroke="grey" stroke-width="1"/><text x="810" y="39" font-size="7">7169</text><rect x="841" y="31" width="40" height="10" fill="#acff00" stroke="grey" stroke-width="1"/><text x="850" y="39" font-size="7">6159</text><rect x="881" y="31" width="40" height="10" fill="#ff0a00" stroke="grey" stroke-width="1"/><text x="890" y="39" font-size="7">18683</text><rect x="921" y="31" width="40" height="10" fill="#ff6f00" stroke="grey" stroke-width="1"/><text x="930" y="39" font-size="7">15410</text><rect x="961" y="31" width="40" height="10" fill="#f9ff00" stroke="grey" stroke-width="1"/><text x="970" y="39" font-size="7">9092</text><rect x="1001" y="31" width="40" height="10" fill="#6eff00" stroke="grey" stroke-width="1"/><text x="1010" y="39" font-size="7">4570</text><rect x="1" y="41" width="40" height="10" fill="#c6ff00" stroke="grey" stroke-width="1"/><text x="10" y="49" font-size="7">6878</text><rect x="41" y="41" width="40" height="10" fill="#61ff00" stroke="grey" stroke-width="1"/><text x="50" y="49" font-size="7">4239</text><rect x="81" y="41" width="40" height="10" fill="#ff0000" stroke="grey" stroke-width="1"/><text x="90" y="49" font-size="7">19925</text><rect x="121" y="41" width="40" height="10" fill="#13ff00" stroke="grey" stroke-width="1"/><text x="130" y="49" font-size="7">1799</text><rect x="161" y="41" width="40" height="10" fill="#00ff00" stroke="grey" stroke-width="1"/><text x="170" y="49" font-size="7">375</text><rect x="201" y="41" width="40" height="10" fill="#fdff00" stroke="grey" stroke-width="1"/><text x="210" y="49" font-size="7">9563</text><rect x="241" y="41" width="40" height="10" fill="#43ff00" stroke="grey" stroke-width="1"/><text x="250" y="49" font-size="7">3445</text><rect x="281" y="41" width="40" height="10" fill="#99ff00" stroke="grey" stroke-width="1"/><text x="290" y="49" font-size="7">5658</text><rect x="321" y="41" width="40" height="10" fill="#ff0000" stroke="grey" stroke-width="1"/><text x="330" y="49" font-size="7">19857</text><rect x="361" y="41" width="40" height="10" fill="#fff200" stroke="grey" stroke-width="1"/><text x="370" y="49" font-size="7">11401</text><rect x="401" y="41" width="40" height="10" fill="#caff00" stroke="grey" stroke-width="1"/><text x="410" y="49" font-size="7">6997</text><rect x="441" y="41" width="40" height="10" fill="#b9ff00" stroke="grey" stroke-width="1"/><text x="450" y="49" font-size="7">6498</text><rect x="481" y="41" width="40" height="10" fill="#ff0000" stroke="grey" stroke-width="1"/><text x="490" y="49" font-size="7">19933</text><rect x="521" y="41" width="40" height="10" fill="#52ff00" stroke="grey" stroke-width="1"/><text x="530" y="49" font-size="7">3848</text><rect x="561" y="41" width="40" height="10" fill="#23ff00" stroke="grey" stroke-width="1"/><text x="570" y="49" font-size="7">2426</text><rect x="601" y="41" width="40" height="10" fill="#1bff00" stroke="grey" stroke-width="1"/><text x="610" y="49" font-size="7">2146</text><rect x="641" y="41" width="40" height="10" fill="#ff0000" stroke="grey" stroke-width="1"/><text x="650" y="49" font-size="7">19745</text><rect x="681" y="41" width="40" height="10" fill="#ff3800" stroke="grey" stroke-width="1"/><text x="690" y="49" font-size="7">16880</text><rect x="721" y="41" width="40" height="10" fill="#ff1d00" stroke="grey" stroke-width="1"/><text x="730" y="49" font-size="7">17773</text><rect x="761" y="41" width="40" height="10" fill="#ff1000" stroke="grey" stroke-width="1"/><text x="770" y="49" font-size="7">18359</text><rect x="801" y="41" width="40" height="10" fill="#55ff00" stroke="grey" stroke-width="1"/><text x="810" y="49" font-size="7">3921</text><rect x="841" y="41" width="40" height="10" fill="#ffa000" stroke="grey" stroke-width="1"/><text x="850" y="49" font-size="7">14172</text><rect x="881" y="41" width="40" height="10" fill="#ff3d00" stroke="grey" stroke-width="1"/><text x="890" y="49" font-size="7">16730</text><rect x="921" y="41" width="40" height="10" fill="#fff600" stroke="grey" stroke-width="1"/><text x="930" y="49" font-size="7">11157</text><rect x="961" y="41" width="40" height="10" fill="#91ff00" stroke="grey" stroke-width="1"/><text x="970" y="49" font-size="7">5439</text><rect x="1001" y="41" width="40" height="10" fill="#00ff00" stroke="grey" stroke-width="1"/><text x="1010" y="49" font-size="7">256</text><rect x="1" y="51" width="40" height="10" fill="#f3ff00" stroke="grey" stroke-width="1"/><text x="10" y="59" font-size="7">8633</text><rect x="41" y="51" width="40" height="10" fill="#ff5d00" stroke="grey" stroke-width="1"/><text x="50" y="59" font-size="7">15862</text><rect x="81" y="51" width="40" height="10" fill="#ff7300" stroke="grey" stroke-width="1"/><text x="90" y="59" font-size="7">15303</text><rect x="121" y="51" width="40" height="10" fill="#fffb00" stroke="grey" stroke-width="1"/><text x="130" y="59" font-size="7">10749</text><rect x="161" y="51" width="40" height="10" fill="#ff0d00" stroke="grey" stroke-width="1"/><text x="170" y="59" font-size="7">18499</text><rect x="201" y="51" width="40" height="10" fill="#e1ff00" stroke="grey" stroke-width="1"/><text x="210" y="59" font-size="7">7792</text><rect x="241" y="51" width="40" height="10" fill="#fffe00" stroke="grey" stroke-width="1"/><text x="250" y="59" font-size="7">10317</text><rect x="281" y="51" width="40" height="10" fill="#a3ff00" stroke="grey" stroke-width="1"/><text x="290" y="59" font-size="7">5901</text><rect x="321" y="51" width="40" height="10" fill="#fcff00" stroke="grey" stroke-width="1"/><text x="330" y="59" font-size="7">9395</text><rect x="361" y="51" width="40" height="10" fill="#fff200" stroke="grey" stroke-width="1"/><text x="370" y="59" font-size="7">11433</text><rect x="401" y="51" width="40" height="10" fill="#46ff00" stroke="grey" stroke-width="1"/><text x="410" y="59" font-size="7">3514</text><rect x="441" y="51" width="40" height="10" fill="#56ff00" stroke="grey" stroke-width="1"/><text x="450" y="59" font-size="7">3959</text><rect x="481" y="51" width="40" height="10" fill="#87ff00" stroke="grey" stroke-width="1"/><text x="490" y="59" font-size="7">5202</text><rect x="521" y="51" width="40" height="10" fill="#ff0000" stroke="grey" stroke-width="1"/><text x="530" y="59" font-size="7">19850</text><rect x="561" y="51" width="40" height="10" fill="#ff0100" stroke="grey" stroke-width="1"/><text x="570" y="59" font-size="7">19469</text><rect x="601" y="51" width="40" height="10" fill="#feff00" stroke="grey" stroke-width="1"/><text x="610" y="59" font-size="7">9790</text><rect x="641" y="51" width="40" height="10" fill="#99ff00" stroke="grey" stroke-width="1"/><text x="650" y="59" font-size="7">5653</text><rect x="681" y="51" width="40" height="10" fill="#03ff00" stroke="grey" stroke-width="1"/><text x="690" y="59" font-size="7">784</text><rect x="721" y="51" width="40" height="10" fill="#ff0d00" stroke="grey" stroke-width="1"/><text x="730" y="59" font-size="7">18500</text><rect x="761" y="51" width="40" height="10" fill="#fffd00" stroke="grey" stroke-width="1"/><text x="770" y="59" font-size="7">10552</text><rect x="801" y="51" width="40" height="10" fill="#ff1800" stroke="grey" stroke-width="1"/><text x="810" y="59" font-size="7">17975</text><rect x="841" y="51" width="40" height="10" fill="#ff4100" stroke="grey" stroke-width="1"/><text x="850" y="59" font-size="7">16615</text><rect x="881" y="51" width="40" height="10" fill="#e3ff00" stroke="grey" stroke-width="1"/><text x="890" y="59" font-size="7">7852</text><rect x="921" y="51" width="40" height="10" fill="#00ff00" stroke="grey" stroke-width="1"/><text x="930" y="59" font-size="7">197</text><rect x="961" y="51" width="40" height="10" fill="#f0ff00" stroke="grey" stroke-width="1"/><text x="970" y="59" font-size="7">8471</text><rect x="1001" y="51" width="40" height="10" fill="#d8ff00" stroke="grey" stroke-width="1"/><text x="1010" y="59" font-size="7">7452</text><rect x="1" y="61" width="40" height="10" fill="#ff0000" stroke="grey" stroke-width="1"/><text x="10" y="69" font-size="7">19855</text><rect x="41" y="61" width="40" height="10" fill="#ff1a00" stroke="grey" stroke-width="1"/><text x="50" y="69" font-size="7">17918</text><rect x="81" y="61" width="40" height="10" fill="#e6ff00" stroke="grey" stroke-width="1"/><text x="90" y="69" font-size="7">7990</text><rect x="121" y="61" width="40" height="10" fill="#fffc00" stroke="grey" stroke-width="1"/><text x="130" y="69" font-size="7">10572</text><rect x="161" y="61" width="40" height="10" fill="#64ff00" stroke="grey" stroke-width="1"/><text x="170" y="69" font-size="7">4333</text><rect x="201" y="61" width="40" height="10" fill="#01ff00" stroke="grey" stroke-width="1"/><text x="210" y="69" font-size="7">438</text><rect x="241" y="61" width="40" height="10" fill="#faff00" stroke="grey" stroke-width="1"/><text x="250" y="69" font-size="7">9140</text><rect x="281" y="61" width="40" height="10" fill="#f9ff00" stroke="grey" stroke-width="1"/><text x="290" y="69" font-size="7">9104</text><rect x="321" y="61" width="40" height="10" fill="#ffd600" stroke="grey" stroke-width="1"/><text x="330" y="69" font-size="7">12622</text><rect x="361" y="61" width="40" height="10" fill="#7eff00" stroke="grey" stroke-width="1"/><text x="370" y="69" font-size="7">4985</text><rect x="401" y="61" width="40" height="10" fill="#ffde00" stroke="grey" stroke-width="1"/><text x="410" y="69" font-size="7">12319</text><rect x="441" y="61" width="40" height="10" fill="#59ff00" stroke="grey" stroke-width="1"/><text x="450" y="69" font-size="7">4028</text><rect x="481" y="61" width="40" height="10" fill="#ff0000" stroke="grey" stroke-width="1"/><text x="490" y="69" font-size="7">19922</text><rect x="521" y="61" width="40" height="10" fill="#ffe300" stroke="grey" stroke-width="1"/><text x="530" y="69" font-size="7">12132</text><rect x="561" y="61" width="40" height="10" fill="#ff4e00" stroke="grey" stroke-width="1"/><text x="570" y="69" font-size="7">16259</text><rect x="601" y="61" width="40" height="10" fill="#ff2600" stroke="grey" stroke-width="1"/><text x="610" y="69" font-size="7">17476</text><rect x="641" y="61" width="40" height="10" fill="#33ff00" stroke="grey" stroke-width="1"/><text x="650" y="69" font-size="7">2976</text><rect x="681" y="61" width="40" height="10" fill="#01ff00" stroke="grey" stroke-width="1"/><text x="690" y="69" font-size="7">547</text><rect x="721" y="61" width="40" height="10" fill="#ff0400" stroke="grey" stroke-width="1"/><text x="730" y="69" font-size="7">19195</text><rect x="761" y="61" width="40" height="10" fill="#ff0000" stroke="grey" stroke-width="1"/><text x="770" y="69" font-size="7">19830</text><rect x="801" y="61" width="40" height="10" fill="#ff4d00" stroke="grey" stroke-width="1"/><text x="810" y="69" font-size="7">16285</text><rect x="841" y="61" width="40" height="10" fill="#77ff00" stroke="grey" stroke-width="1"/><text x="850" y="69" font-size="7">4806</text><rect x="881" y="61" width="40" height="10" fill="#6aff00" stroke="grey" stroke-width="1"/><text x="890" y="69" font-size="7">4471</text><rect x="921" y="61" width="40" height="10" fill="#fdff00" stroke="grey" stroke-width="1"/><text x="930" y="69" font-size="7">9457</text><rect x="961" y="61" width="40" height="10" fill="#30ff00" stroke="grey" stroke-width="1"/><text x="970" y="69" font-size="7">2864</text><rect x="1001" y="61" width="40" height="10" fill="#1dff00" stroke="grey" stroke-width="1"/><text x="1010" y="69" font-size="7">2192</text><rect x="1" y="21" width="40" height="10" fill="none" stroke="black" stroke-width="3"/><rect x="641" y="31" width="40" height="10" fill="none" stroke="black" stroke-width="3"/><rect x="481" y="41" width="40" height="10" fill="none" stroke="black" stroke-width="3"/><rect x="521" y="51" width="40" height="10" fill="none" stroke="black" stroke-width="3"/><rect x="481" y="61" width="40" height="10" fill="none" stroke="black" stroke-width="3"/></svg>